<svg xmlns="http://www.w3.org/2000/svg" xmlns:xlink="http://www.w3.org/1999/xlink" width="50" zoomAndPan="magnify" viewBox="0 0 37.5 37.499999" height="50" preserveAspectRatio="xMidYMid meet" version="1.0"><defs><clipPath id="b50c053324"><path d="M 8.945312 10.574219 L 28.1875 10.574219 L 28.1875 22 L 8.945312 22 Z M 8.945312 10.574219 " clip-rule="nonzero"/></clipPath><clipPath id="6add81ec2b"><path d="M 10 19 L 27 19 L 27 29.816406 L 10 29.816406 Z M 10 19 " clip-rule="nonzero"/></clipPath><clipPath id="5591c107c1"><path d="M 12.878906 5.625 L 23.984375 5.625 L 23.984375 31.371094 L 12.878906 31.371094 Z M 12.878906 5.625 " clip-rule="nonzero"/></clipPath></defs><g clip-path="url(#b50c053324)"><path fill="#0cc0df" d="M 11.003906 18.441406 C 10.742188 17.578125 10.542969 16.675781 10.410156 15.761719 C 11.042969 15.667969 11.773438 15.46875 12.585938 15.164062 C 13.472656 14.832031 14.472656 14.375 15.554688 13.804688 C 16.84375 13.128906 17.964844 12.441406 18.5 12.101562 C 18.503906 12.101562 18.503906 12.101562 18.503906 12.101562 C 19.039062 12.441406 20.160156 13.128906 21.449219 13.804688 C 22.53125 14.375 23.53125 14.832031 24.417969 15.164062 C 25.230469 15.46875 25.960938 15.667969 26.59375 15.761719 C 26.460938 16.675781 26.261719 17.578125 26 18.441406 C 25.722656 19.371094 25.367188 20.28125 24.941406 21.148438 C 27.371094 18.515625 28.058594 14.578125 28.058594 14.578125 L 27.335938 14.570312 C 26.191406 14.554688 24.375 13.914062 22.089844 12.710938 C 20.316406 11.78125 18.894531 10.839844 18.878906 10.828125 L 18.503906 10.582031 L 18.5 10.582031 L 18.125 10.828125 C 18.109375 10.839844 16.683594 11.78125 14.914062 12.710938 C 12.625 13.914062 10.8125 14.554688 9.667969 14.570312 L 8.945312 14.578125 C 8.945312 14.578125 9.632812 18.515625 12.058594 21.148438 C 11.636719 20.28125 11.28125 19.371094 11.003906 18.441406 " fill-opacity="1" fill-rule="nonzero"/></g><g clip-path="url(#6add81ec2b)"><path fill="#0cc0df" d="M 18.503906 28.492188 C 18.503906 28.492188 18.503906 28.492188 18.5 28.488281 C 18.5 28.492188 18.5 28.492188 18.5 28.492188 C 14.355469 25.835938 10.820312 20.507812 10.144531 19.488281 C 10.375 20.148438 10.640625 20.796875 10.929688 21.421875 C 11.734375 23.148438 12.769531 24.757812 14.011719 26.203125 C 15.113281 27.492188 16.179688 28.414062 16.878906 28.957031 C 17.648438 29.554688 18.15625 29.847656 18.175781 29.859375 L 18.5 30.042969 L 18.503906 30.042969 L 18.824219 29.859375 C 18.847656 29.847656 19.355469 29.554688 20.125 28.957031 C 20.824219 28.414062 21.890625 27.492188 22.992188 26.203125 C 24.230469 24.757812 25.269531 23.148438 26.074219 21.421875 C 26.363281 20.796875 26.628906 20.148438 26.859375 19.488281 C 26.179688 20.507812 22.648438 25.835938 18.503906 28.492188 " fill-opacity="1" fill-rule="nonzero"/></g><g clip-path="url(#5591c107c1)"><path fill="#0cc0df" d="M 21.179688 5.625 L 12.878906 22.53125 L 17.523438 22.558594 L 16.335938 31.371094 L 24.121094 18.039062 L 19.40625 17.894531 L 21.179688 5.625 " fill-opacity="1" fill-rule="nonzero"/></g></svg>